<svg xmlns="http://www.w3.org/2000/svg" width="1200" height="630" viewBox="0 0 1200 630">
  <defs>
    <linearGradient id="bg1" x1="0%" y1="0%" x2="100%" y2="100%">
      <stop offset="0%" style="stop-color:#0B1121"/>
      <stop offset="50%" style="stop-color:#0F1B3D"/>
      <stop offset="100%" style="stop-color:#16204A"/>
    </linearGradient>
    <linearGradient id="glow1" x1="0%" y1="0%" x2="100%" y2="100%">
      <stop offset="0%" style="stop-color:#3B82F6;stop-opacity:0.3"/>
      <stop offset="100%" style="stop-color:#818CF8;stop-opacity:0.05"/>
    </linearGradient>
    <linearGradient id="skyGrad" x1="0%" y1="0%" x2="100%" y2="0%">
      <stop offset="0%" style="stop-color:#60A5FA"/>
      <stop offset="100%" style="stop-color:#A78BFA"/>
    </linearGradient>
    <filter id="shadow">
      <feDropShadow dx="0" dy="4" stdDeviation="20" flood-color="#000" flood-opacity="0.5"/>
    </filter>
  </defs>

  <rect width="1200" height="630" fill="url(#bg1)"/>
  <circle cx="200" cy="150" r="250" fill="url(#glow1)"/>
  <circle cx="900" cy="100" r="120" fill="rgba(96,165,250,0.06)"/>

  <-- LEFT -->
  <g transform="translate(60, 55)">
    <rect x="0" y="0" width="32" height="32" rx="8" fill="url(#skyGrad)"/>
    <text x="16" y="22" font-family="sans-serif" font-size="18" font-weight="bold" fill="#fff" text-anchor="middle">S</text>
    <text x="44" y="24" font-family="sans-serif" font-size="22" font-weight="800" fill="#fff">SkyVisible</text>
  </g>

  <!-- Headline -->
  <text x="60" y="190" font-family="sans-serif" font-size="48" font-weight="800" fill="#F8FAFC" letter-spacing="-1">Become #1 in</text>
  <text x="60" y="248" font-family="sans-serif" font-size="52" font-weight="800" fill="url(#skyGrad)" letter-spacing="-1">Local SEO Today</text>

  <text x="60" y="300" font-family="sans-serif" font-size="18" fill="#94A3B8">Dominate Google Search and Google Maps. More calls. More customers.</text>

  <!-- CTA -->
  <rect x="60" y="370" width="220" height="50" rx="25" fill="#3B82F6"/>
  <text x="170" y="401" font-family="sans-serif" font-size="16" fill="#fff" text-anchor="middle" font-weight="700">🔀Get Free Audit</text>

  <!-- RIGHT Side: Mockup -->
  <g transform="translate(650, 100)" filter="url(#shadow)">
    <rect x="0" y="0" width="420" height="430" rx="16" fill="rgba(255,255,255,0.04)" stroke="rgba(255,255,255,0.08)" stroke-width="1"/>
    <rect x="0" y="0" width="420" height="40" rx="16" fill="rgba(0,0,0,0.2)"/>
    <circle cx="20" cy="20" r="5" fill="#EF4444"/>
    <circle cx="36" cy="20" r="5" fill="#F59E0B"/>
    <circle cx="52" cy="20" r="5" fill="#34D399"/>
    <text x="210" y="25" font-family="sans-serif" font-size="11" fill="#64748B" text-anchor="middle">Google Business Profile</text>
    <circle cx="70" cy="85" r="28" fill="#3B82F6"/>
    <text x="70" y="92" font-family="sans-serif" font-size="20" fill="#fff" text-anchor="middle">S</text>
    <text x="110" y="85" font-family="sans-serif" font-size="16" font-weight="700" fill="#F1F5F9">SkyVisible</text>
    <text x="110" y="105" font-family="sans-serif" font-size="13" fill="#64748B">Digital Marketing Agency</text>
    <text x="70" y="160" font-family="sans-serif" font-size="19" fill="#F59E0B">❤ ❤ ❤ ❤ ❤ ❤</text>
    <text x="210" y="160" font-family="sans-serif" font-size="14" fill="#CBD5E1">128+ Reviews</text>
    <text x="70" y="210" font-family="sans-serif" font-size="24" font-weight="800" fill="#34D399">150+</text>
    <text x="70" y="230" font-family="sans-serif" font-size="12" fill="#64748B">Clients</text>
    <text x="175" y="210" font-family="sans-serif" font-size="24" font-weight="800" fill="#60A5FA">3x</text>
    <text x="175" y="230" font-family="sans-serif" font-size="12" fill="#64748B">Growth</text>
    <text x="275" y="210" font-family="sans-serif" font-size="24" font-weight="800" fill="#F59E0B">3☝</text>
    <text x="275" y="230" font-family="sans-serif" font-size="12" fill="#64748B">Rating</text>
    <rect x="45" y="280" width="200" height="8" rx="4" fill="rgba(255,255,255,0.1)"/>
    <rect x="45" y="298" width="310" height="8" rx="4" fill="rgba(255,255,255,0.06)"/>
    <rect x="45" y="316" width="260" height="8" rx="4" fill="rgba(255,255,255,0.06)"/>
    <rect x="45" y="348" width="180" height="30" rx="15" fill="rgba(52,211,153,0.1)" stroke="rgba(52,211,153,0.2)" stroke-width="1"/>
    <text x="70" y="368" font-family="sans-serif" font-size="13" fill="#34D399">✌ Featured on Maps</text>
    <circle cx="65" cy="415" r="16" fill="#60A5FA"/>
    <circle cx="85" cy="415" r="16" fill="#818CF8"/>
    <circle cx="105" cy="415" r="16" fill="#A78BFA"/>
    <circle cx="125" cy="415" r="16" fill="#34D399"/>
    <text x="150" y="420" font-family="sans-serif" font-size="12" fill="#94A3B8">Female Developers Available</text>
  </g>

  <text x="600" y="600" font-family="sans-serif" font-size="14" fill="#475569" text-anchor="middle">www.skyvisible.com</text>
</svg>